<svg width="161" height="87" viewBox="0 0 161 87" fill="none" xmlns="http://www.w3.org/2000/svg">
<path d="M131 36.7241C130.464 35.0984 129.956 33.7249 129.562 32.2953C129.308 31.3984 128.8 31.1461 127.926 31.1741C125.162 31.2863 122.369 31.1461 119.634 31.4825C116.898 31.8188 115.036 31.006 113.795 28.5673C113.429 27.8386 112.808 27.1939 112.272 26.5492C111.539 25.6802 111.398 24.8113 111.821 23.7181C113.034 20.6348 114.077 17.4954 115.29 14.3841C115.685 13.375 115.488 12.7583 114.585 12.1697C112.921 11.0485 111.37 9.84319 109.762 8.72198C107.506 7.18033 108.126 7.0682 105.87 8.75001C103.388 10.6 100.906 12.422 98.4521 14.328C97.6624 14.9447 96.9009 15.0288 95.9701 14.6924C94.4753 14.1318 92.9805 13.5712 91.4292 13.2348C90.1036 12.9265 89.4831 12.1697 89.1447 10.9364C88.2421 7.79699 87.2268 4.68564 86.3242 1.54626C86.0704 0.649299 85.6191 0.200816 84.6884 0.172786C82.3756 0.144756 80.0911 0.144756 77.8065 0.0326353C76.5373 -0.0234251 75.8322 0.425058 75.4655 1.68641C74.6194 4.7417 73.6041 7.74093 72.7297 10.7962C72.3913 12.0015 71.8272 12.7023 70.5298 12.9826C68.8939 13.347 67.2581 13.8515 65.7068 14.4682C64.6351 14.8886 63.8453 14.6924 62.9992 14.0477C60.2352 11.9455 57.4429 9.89925 54.7071 7.76896C53.9738 7.20836 53.4097 7.20836 52.7046 7.74093C50.7303 9.17047 48.7278 10.572 46.7253 11.9174C45.8791 12.478 45.8509 13.0667 46.1894 13.9356C47.4304 17.1591 48.615 20.4106 49.7149 23.6621C49.9124 24.2507 49.7149 25.1477 49.3765 25.6802C48.3611 27.2499 47.1201 28.6795 46.0766 30.2211C45.4561 31.1181 44.7227 31.4825 43.6228 31.4264C40.1536 31.2863 36.6845 31.2022 33.1871 31.1741C32.7077 31.1741 31.9462 31.3984 31.8051 31.7347C31.1564 33.3044 30.677 34.9302 30.0565 36.7241C30.818 36.7241 31.3257 36.7241 31.8615 36.7241C37.0229 36.7241 42.2126 36.612 47.374 36.7802C49.4047 36.8362 50.7585 36.4438 51.4354 34.4256C51.661 33.7809 52.1687 33.2203 52.5354 32.6597C61.0531 19.5977 78.5116 14.328 92.9241 20.3825C100.398 23.5219 106.011 28.6234 109.875 35.715C110.101 36.1635 110.721 36.6961 111.144 36.6961C117.659 36.7521 124.203 36.7241 131 36.7241Z" fill="white"/>
<path d="M131 36.7241C124.174 36.7241 117.659 36.7522 111.116 36.6681C110.693 36.6681 110.072 36.1355 109.847 35.687C105.983 28.5954 100.37 23.4939 92.8958 20.3545C78.5116 14.328 61.053 19.5977 52.4789 32.6317C52.084 33.2204 51.5764 33.7529 51.3789 34.3976C50.702 36.4158 49.3482 36.8362 47.3175 36.7522C42.1561 36.584 36.9947 36.6961 31.8051 36.6961C31.2974 36.6961 30.7897 36.6961 30 36.6961C30.5923 34.9302 31.0718 33.2764 31.7487 31.7067C31.8897 31.3704 32.6512 31.1461 33.1307 31.1461C36.5998 31.1742 40.0972 31.2582 43.5663 31.3984C44.6945 31.4545 45.3996 31.0901 46.0201 30.1931C47.0919 28.6514 48.3047 27.2219 49.32 25.6522C49.6585 25.1196 49.8559 24.2227 49.6585 23.634C48.5585 20.3545 47.3457 17.131 46.1329 13.9076C45.7945 13.0386 45.8509 12.45 46.6688 11.8894C48.6995 10.544 50.6738 9.11442 52.6481 7.71291C53.3532 7.20837 53.9173 7.18034 54.6506 7.74094C57.3865 9.87123 60.2069 11.9174 62.9427 14.0197C63.7889 14.6644 64.5786 14.8886 65.6504 14.4401C67.2016 13.8235 68.8375 13.3189 70.4733 12.9546C71.7707 12.6742 72.3348 11.9735 72.6733 10.7682C73.5194 7.71291 74.5348 4.71369 75.4091 1.6584C75.7757 0.397042 76.4809 -0.0514402 77.7501 0.00462013C80.0346 0.116741 82.3474 0.116741 84.6319 0.144771C85.5909 0.144771 86.0139 0.593253 86.2678 1.51825C87.1703 4.65763 88.1857 7.76897 89.0882 10.9083C89.4267 12.1417 90.0472 12.8985 91.3728 13.2068C92.924 13.5712 94.4189 14.1038 95.9137 14.6644C96.8444 15.0288 97.6059 14.9167 98.3957 14.3C100.849 12.422 103.331 10.572 105.813 8.722C108.07 7.04019 107.477 7.15231 109.706 8.69397C111.313 9.81517 112.893 11.0205 114.529 12.0856C115.431 12.6742 115.629 13.2909 115.234 14.3C114.049 17.3833 112.977 20.5227 111.765 23.634C111.341 24.7272 111.483 25.5962 112.216 26.4651C112.752 27.1098 113.344 27.7545 113.739 28.4833C114.98 30.9219 116.841 31.7348 119.577 31.3984C122.313 31.062 125.105 31.2022 127.869 31.0901C128.744 31.062 129.251 31.3423 129.505 32.2113C129.985 33.7249 130.492 35.0984 131 36.7241Z" fill="#FF3811"/>
<path d="M102.344 46.1983C99.0162 42.9187 95.6598 39.6112 92.3035 36.2756C91.7112 35.687 91.3446 36.0794 90.9215 36.4998C89.3421 38.0976 87.7626 39.6953 86.155 41.2369C85.1396 42.218 84.0396 43.171 82.9679 44.124C83.0525 44.2642 83.1371 44.3763 83.2217 44.5165C86.3524 43.8998 89.0882 44.5445 91.3446 46.7589C93.5727 48.9733 94.165 51.7482 93.6009 54.7475C96.5342 51.8884 99.3828 49.0854 102.344 46.1983Z" fill="white"/>
<path d="M78.0321 44.3483C77.609 43.8718 77.4116 43.5634 77.1577 43.3112C74.9014 41.0688 72.5886 38.8824 70.3887 36.5839C69.599 35.7711 69.1195 35.7991 68.358 36.5839C65.4247 39.5551 62.4915 42.4703 59.4736 45.3574C58.7121 46.0862 58.8813 46.5346 59.53 47.1793C61.8992 49.5058 64.2401 51.8604 66.6093 54.1869C66.8067 54.3831 67.0888 54.4952 67.4272 54.7194C66.4401 47.9922 71.1784 43.3672 78.0321 44.3483Z" fill="white"/>
<path d="M67.0606 33.3604C63.4786 36.9763 60.0095 40.5081 56.5685 43.9838C56.8224 44.3202 57.1608 44.7967 57.4711 45.1891C61.1095 41.5732 64.6068 38.1255 68.3298 34.4536C67.9349 34.1172 67.4836 33.7248 67.0606 33.3604Z" fill="white"/>
<path d="M107.083 41.5733C106.998 41.4332 106.942 41.265 106.829 41.1249C103.642 37.9575 100.483 34.8181 97.2957 31.6507C96.7599 31.1181 96.365 31.0901 95.7727 31.6507C95.1522 32.2673 95.265 32.6878 95.8291 33.2484C98.6778 36.0234 101.47 38.8264 104.29 41.6294C104.742 42.0779 105.221 42.4983 105.87 43.115C106.293 42.5824 106.631 42.162 107.083 41.5733Z" fill="white"/>
<path d="M104.826 43.8157C101.555 40.5642 98.3393 37.3968 95.124 34.1733C94.5881 33.6408 94.1368 33.2203 93.4035 34.0052C92.6984 34.762 93.0933 35.2105 93.6574 35.743C96.5342 38.5741 99.3829 41.4051 102.231 44.2362C103.501 45.5255 103.529 45.5255 104.826 43.8157Z" fill="white"/>
<path d="M65.876 32.3233C64.6068 30.7817 64.635 30.7817 63.2812 32.0991C60.5172 34.846 57.7532 37.565 55.0173 40.3119C53.6917 41.6293 53.7199 41.7975 55.2994 42.6945C58.8249 39.2468 62.3223 35.7991 65.876 32.3233Z" fill="white"/>
<path d="M102.344 46.1983C99.3828 49.1134 96.5342 51.8884 93.6009 54.7755C94.165 51.7763 93.5727 49.0293 91.3446 46.7869C89.0882 44.5445 86.3242 43.9278 83.2217 44.5445C83.1371 44.4043 83.0525 44.2922 82.9679 44.1521C84.0396 43.199 85.1114 42.274 86.155 41.265C87.7626 39.6953 89.3421 38.1256 90.9215 36.5279C91.3446 36.1074 91.7112 35.715 92.3035 36.3036C95.6598 39.5831 99.0162 42.8907 102.344 46.1983ZM94.6445 41.6574C94.0522 42.4422 93.3471 42.9748 93.4035 43.3672C93.4881 43.8437 94.2214 44.2361 94.6727 44.6566C95.0676 44.2361 95.7445 43.8157 95.7727 43.3672C95.8291 42.9187 95.2086 42.4142 94.6445 41.6574Z" fill="#444444"/>
<path d="M78.0321 44.3483C71.1502 43.3672 66.4401 47.9922 67.4272 54.7475C67.0888 54.5232 66.8067 54.4111 66.6093 54.2149C64.2401 51.8884 61.8992 49.5338 59.53 47.2073C58.8813 46.5627 58.7121 46.1142 59.4736 45.3854C62.4633 42.4983 65.4247 39.5551 68.358 36.6119C69.1195 35.8271 69.599 35.7991 70.3887 36.6119C72.5886 38.9104 74.9014 41.0968 77.1577 43.3392C77.4116 43.5634 77.6372 43.8718 78.0321 44.3483ZM68.1887 43.4513C67.399 42.8066 66.8913 42.1059 66.5247 42.1619C66.017 42.246 65.5939 42.9468 65.1427 43.3672C65.5657 43.7877 65.9324 44.4604 66.4119 44.5445C66.8067 44.6005 67.3426 43.9839 68.1887 43.4513Z" fill="#444444"/>
<path d="M67.0606 33.3604C67.4836 33.7248 67.9349 34.0892 68.3298 34.4536C64.635 38.1255 61.1377 41.5732 57.4711 45.1891C57.1608 44.7687 56.7942 44.2922 56.5685 43.9838C60.0095 40.5081 63.5068 36.9763 67.0606 33.3604Z" fill="#444444"/>
<path d="M107.083 41.5733C106.631 42.162 106.293 42.5824 105.87 43.143C105.221 42.5264 104.742 42.1059 104.29 41.6574C101.47 38.8544 98.6777 36.0514 95.8291 33.2764C95.2368 32.7158 95.124 32.2953 95.7727 31.6787C96.3368 31.1181 96.7598 31.1461 97.2957 31.6787C100.455 34.8461 103.642 37.9855 106.829 41.1529C106.942 41.237 106.998 41.4332 107.083 41.5733Z" fill="#444444"/>
<path d="M104.826 43.8157C103.557 45.5255 103.529 45.5255 102.231 44.2362C99.3829 41.4051 96.5342 38.546 93.6574 35.743C93.0933 35.2105 92.6984 34.762 93.4035 34.0052C94.1368 33.2203 94.5881 33.6408 95.124 34.1733C98.3393 37.3968 101.555 40.5642 104.826 43.8157Z" fill="#444444"/>
<path d="M65.876 32.3233C62.3223 35.8271 58.8249 39.2468 55.2994 42.7225C53.7199 41.8255 53.6917 41.6574 55.0173 40.3399C57.7814 37.593 60.5454 34.8741 63.2812 32.1271C64.635 30.7817 64.635 30.7817 65.876 32.3233Z" fill="#444444"/>
<path d="M94.6445 41.6574C95.1804 42.4423 95.8009 42.9188 95.7727 43.3673C95.7445 43.8157 95.0676 44.2362 94.6727 44.6566C94.2214 44.2362 93.4881 43.8718 93.4035 43.3673C93.3471 42.9748 94.0522 42.4423 94.6445 41.6574Z" fill="white"/>
<path d="M68.1888 43.4513C67.3426 43.9839 66.835 44.6006 66.3837 44.5165C65.9042 44.4604 65.5376 43.7597 65.1145 43.3392C65.5658 42.9187 65.9888 42.218 66.4965 42.1339C66.8914 42.1059 67.3991 42.8347 68.1888 43.4513Z" fill="white"/>
<path d="M7.87305 68.8126C7.29362 68.8126 6.7793 68.9266 6.33008 69.1544C5.88737 69.3758 5.51302 69.698 5.20703 70.1212C4.90755 70.5444 4.67969 71.0555 4.52344 71.6544C4.36719 72.2534 4.28906 72.9272 4.28906 73.6759C4.28906 74.685 4.41276 75.5476 4.66016 76.2638C4.91406 76.9734 5.30469 77.517 5.83203 77.8947C6.35938 78.2657 7.03971 78.4513 7.87305 78.4513C8.45247 78.4513 9.0319 78.3862 9.61133 78.256C10.1973 78.1258 10.832 77.9402 11.5156 77.6993V80.2384C10.8841 80.4988 10.2624 80.6844 9.65039 80.795C9.03841 80.9122 8.35156 80.9708 7.58984 80.9708C6.11849 80.9708 4.90755 80.6681 3.95703 80.0626C3.01302 79.4506 2.31315 78.5978 1.85742 77.504C1.40169 76.4038 1.17383 75.1212 1.17383 73.6564C1.17383 72.5756 1.32031 71.5861 1.61328 70.6876C1.90625 69.7892 2.33594 69.0112 2.90234 68.3536C3.46875 67.6961 4.16862 67.1883 5.00195 66.8302C5.83529 66.4721 6.79232 66.2931 7.87305 66.2931C8.58268 66.2931 9.29232 66.3842 10.002 66.5665C10.7181 66.7423 11.4017 66.9865 12.0527 67.299L11.0762 69.7599C10.5423 69.506 10.0052 69.2846 9.46484 69.0958C8.92448 68.907 8.39388 68.8126 7.87305 68.8126ZM18.8008 69.6329C20.2656 69.6329 21.3887 69.9519 22.1699 70.59C22.9512 71.228 23.3418 72.198 23.3418 73.5001V80.7755H21.2617L20.6855 79.2911H20.6074C20.2949 79.6818 19.9759 80.0008 19.6504 80.2482C19.3249 80.4956 18.9505 80.6779 18.5273 80.795C18.1042 80.9122 17.5898 80.9708 16.9844 80.9708C16.3398 80.9708 15.7604 80.8471 15.2461 80.5997C14.7383 80.3523 14.3379 79.9747 14.0449 79.4669C13.752 78.9526 13.6055 78.3016 13.6055 77.5138C13.6055 76.3549 14.0124 75.5021 14.8262 74.9552C15.64 74.4018 16.8607 74.0958 18.4883 74.0372L20.3828 73.9786V73.5001C20.3828 72.9272 20.2331 72.5073 19.9336 72.2404C19.6341 71.9734 19.2174 71.84 18.6836 71.84C18.1562 71.84 17.6387 71.9148 17.1309 72.0646C16.623 72.2143 16.1152 72.4031 15.6074 72.631L14.6211 70.6193C15.2005 70.3133 15.8483 70.0724 16.5645 69.8966C17.2871 69.7208 18.0326 69.6329 18.8008 69.6329ZM20.3828 75.7169L19.2305 75.756C18.2669 75.782 17.5964 75.9545 17.2188 76.2736C16.8477 76.5926 16.6621 77.0125 16.6621 77.5333C16.6621 77.9891 16.7956 78.3146 17.0625 78.5099C17.3294 78.6987 17.6777 78.7931 18.1074 78.7931C18.7454 78.7931 19.2826 78.6043 19.7188 78.2267C20.1615 77.8491 20.3828 77.312 20.3828 76.6154V75.7169ZM32.5117 69.6525C32.6615 69.6525 32.834 69.6622 33.0293 69.6818C33.2311 69.6948 33.3939 69.7143 33.5176 69.7404L33.293 72.5333C33.1953 72.5008 33.0553 72.478 32.873 72.465C32.6973 72.4454 32.5443 72.4357 32.4141 72.4357C32.0299 72.4357 31.6556 72.4845 31.291 72.5822C30.9329 72.6798 30.6107 72.8393 30.3242 73.0607C30.0378 73.2755 29.8099 73.562 29.6406 73.92C29.4779 74.2716 29.3965 74.7045 29.3965 75.2189V80.7755H26.418V69.8575H28.6738L29.1133 71.6935H29.2598C29.4746 71.3224 29.7415 70.9838 30.0605 70.6779C30.3861 70.3654 30.7539 70.118 31.1641 69.9357C31.5807 69.7469 32.0299 69.6525 32.5117 69.6525ZM52.6289 80.7755H49.6113V74.6134H43.957V80.7755H40.9297V66.4982H43.957V72.0939H49.6113V66.4982H52.6289V80.7755ZM58.9863 69.8575V80.7755H56.0078V69.8575H58.9863ZM57.502 65.5802C57.9447 65.5802 58.3255 65.6844 58.6445 65.8927C58.9635 66.0945 59.123 66.4754 59.123 67.0353C59.123 67.5887 58.9635 67.9728 58.6445 68.1876C58.3255 68.396 57.9447 68.5001 57.502 68.5001C57.0527 68.5001 56.6686 68.396 56.3496 68.1876C56.0371 67.9728 55.8809 67.5887 55.8809 67.0353C55.8809 66.4754 56.0371 66.0945 56.3496 65.8927C56.6686 65.6844 57.0527 65.5802 57.502 65.5802ZM65.0996 65.5802V72.3771C65.0996 72.7872 65.0833 73.1974 65.0508 73.6075C65.0182 74.0177 64.9824 74.4279 64.9434 74.838H64.9824C65.1842 74.5516 65.3893 74.2684 65.5977 73.9884C65.8125 73.7085 66.0404 73.4383 66.2812 73.1779L69.3379 69.8575H72.6973L68.3613 74.5939L72.9609 80.7755H69.5234L66.3789 76.3517L65.0996 77.3771V80.7755H62.1211V65.5802H65.0996ZM84.4453 75.297C84.4453 76.2085 84.3216 77.0157 84.0742 77.7189C83.8333 78.422 83.4785 79.0177 83.0098 79.506C82.5475 79.9878 81.9876 80.3523 81.3301 80.5997C80.679 80.8471 79.9434 80.9708 79.123 80.9708C78.3548 80.9708 77.6484 80.8471 77.0039 80.5997C76.3659 80.3523 75.8092 79.9878 75.334 79.506C74.8652 79.0177 74.5007 78.422 74.2402 77.7189C73.9863 77.0157 73.8594 76.2085 73.8594 75.297C73.8594 74.0861 74.0742 73.0607 74.5039 72.2208C74.9336 71.381 75.5456 70.743 76.3398 70.3068C77.1341 69.8706 78.0814 69.6525 79.1816 69.6525C80.2038 69.6525 81.1087 69.8706 81.8965 70.3068C82.6908 70.743 83.3125 71.381 83.7617 72.2208C84.2174 73.0607 84.4453 74.0861 84.4453 75.297ZM76.8965 75.297C76.8965 76.0131 76.9746 76.6154 77.1309 77.1036C77.2871 77.5919 77.5312 77.9598 77.8633 78.2072C78.1953 78.4545 78.6283 78.5782 79.1621 78.5782C79.6895 78.5782 80.1159 78.4545 80.4414 78.2072C80.7734 77.9598 81.0143 77.5919 81.1641 77.1036C81.3203 76.6154 81.3984 76.0131 81.3984 75.297C81.3984 74.5743 81.3203 73.9754 81.1641 73.5001C81.0143 73.0184 80.7734 72.657 80.4414 72.4161C80.1094 72.1753 79.6764 72.0548 79.1426 72.0548C78.3548 72.0548 77.7819 72.325 77.4238 72.8654C77.0723 73.4057 76.8965 74.2163 76.8965 75.297ZM99.7188 77.5333C99.7188 78.2755 99.543 78.9038 99.1914 79.4181C98.8464 79.9259 98.3288 80.3133 97.6387 80.5802C96.9486 80.8406 96.0892 80.9708 95.0605 80.9708C94.2988 80.9708 93.6445 80.922 93.0977 80.8243C92.5573 80.7267 92.0104 80.5639 91.457 80.3361V77.8751C92.0495 78.142 92.6842 78.3634 93.3613 78.5392C94.0449 78.7085 94.6439 78.7931 95.1582 78.7931C95.7376 78.7931 96.151 78.7085 96.3984 78.5392C96.6523 78.3634 96.7793 78.1355 96.7793 77.8556C96.7793 77.6733 96.7272 77.5105 96.623 77.3673C96.5254 77.2176 96.3105 77.0516 95.9785 76.8693C95.6465 76.6805 95.1257 76.4363 94.416 76.1368C93.7324 75.8504 93.1693 75.5607 92.7266 75.2677C92.2904 74.9747 91.9648 74.6297 91.75 74.2325C91.5417 73.8289 91.4375 73.3178 91.4375 72.6993C91.4375 71.6902 91.8281 70.9318 92.6094 70.424C93.3971 69.9096 94.4486 69.6525 95.7637 69.6525C96.4408 69.6525 97.0853 69.7208 97.6973 69.8575C98.3158 69.9943 98.9505 70.2124 99.6016 70.5118L98.7031 72.6603C98.1628 72.4259 97.6517 72.2338 97.1699 72.0841C96.6947 71.9344 96.2096 71.8595 95.7148 71.8595C95.2786 71.8595 94.9499 71.9181 94.7285 72.0353C94.5072 72.1525 94.3965 72.3315 94.3965 72.5724C94.3965 72.7482 94.4518 72.9044 94.5625 73.0411C94.6797 73.1779 94.901 73.3309 95.2266 73.5001C95.5586 73.6629 96.0436 73.8745 96.6816 74.1349C97.3001 74.3888 97.8372 74.6557 98.293 74.9357C98.7487 75.2091 99.1003 75.5509 99.3477 75.9611C99.5951 76.3647 99.7188 76.8888 99.7188 77.5333ZM106.545 69.6525C107.554 69.6525 108.423 69.8478 109.152 70.2384C109.882 70.6225 110.445 71.1824 110.842 71.9181C111.239 72.6538 111.438 73.5522 111.438 74.6134V76.0587H104.396C104.429 76.8986 104.68 77.5594 105.148 78.0411C105.624 78.5164 106.281 78.754 107.121 78.754C107.818 78.754 108.456 78.6824 109.035 78.5392C109.615 78.396 110.21 78.1811 110.822 77.8947V80.1993C110.282 80.4663 109.715 80.6616 109.123 80.7853C108.537 80.909 107.824 80.9708 106.984 80.9708C105.891 80.9708 104.921 80.769 104.074 80.3654C103.234 79.9617 102.574 79.3465 102.092 78.5197C101.617 77.6928 101.379 76.6512 101.379 75.3947C101.379 74.1186 101.594 73.0574 102.023 72.2111C102.46 71.3582 103.065 70.7202 103.84 70.297C104.615 69.8673 105.516 69.6525 106.545 69.6525ZM106.564 71.7716C105.985 71.7716 105.503 71.9572 105.119 72.3282C104.742 72.6993 104.523 73.282 104.465 74.0763H108.645C108.638 73.6336 108.557 73.2397 108.4 72.8947C108.251 72.5496 108.023 72.2762 107.717 72.0743C107.417 71.8725 107.033 71.7716 106.564 71.7716ZM119.953 69.6525C120.103 69.6525 120.275 69.6622 120.471 69.6818C120.673 69.6948 120.835 69.7143 120.959 69.7404L120.734 72.5333C120.637 72.5008 120.497 72.478 120.314 72.465C120.139 72.4454 119.986 72.4357 119.855 72.4357C119.471 72.4357 119.097 72.4845 118.732 72.5822C118.374 72.6798 118.052 72.8393 117.766 73.0607C117.479 73.2755 117.251 73.562 117.082 73.92C116.919 74.2716 116.838 74.7045 116.838 75.2189V80.7755H113.859V69.8575H116.115L116.555 71.6935H116.701C116.916 71.3224 117.183 70.9838 117.502 70.6779C117.827 70.3654 118.195 70.118 118.605 69.9357C119.022 69.7469 119.471 69.6525 119.953 69.6525ZM125.539 80.7755L121.379 69.8575H124.494L126.604 76.0782C126.721 76.4428 126.812 76.8269 126.877 77.2306C126.949 77.6342 126.997 77.9956 127.023 78.3146H127.102C127.121 77.9695 127.167 77.6017 127.238 77.2111C127.316 76.8204 127.417 76.4428 127.541 76.0782L129.641 69.8575H132.756L128.596 80.7755H125.539ZM137.307 69.8575V80.7755H134.328V69.8575H137.307ZM135.822 65.5802C136.265 65.5802 136.646 65.6844 136.965 65.8927C137.284 66.0945 137.443 66.4754 137.443 67.0353C137.443 67.5887 137.284 67.9728 136.965 68.1876C136.646 68.396 136.265 68.5001 135.822 68.5001C135.373 68.5001 134.989 68.396 134.67 68.1876C134.357 67.9728 134.201 67.5887 134.201 67.0353C134.201 66.4754 134.357 66.0945 134.67 65.8927C134.989 65.6844 135.373 65.5802 135.822 65.5802ZM144.875 80.9708C143.794 80.9708 142.873 80.7755 142.111 80.3849C141.35 79.9878 140.77 79.3758 140.373 78.549C139.976 77.7221 139.777 76.6642 139.777 75.3751C139.777 74.0405 140.002 72.9532 140.451 72.1134C140.907 71.267 141.535 70.6453 142.336 70.2482C143.143 69.851 144.077 69.6525 145.139 69.6525C145.894 69.6525 146.545 69.7273 147.092 69.8771C147.645 70.0203 148.127 70.1928 148.537 70.3947L147.658 72.6993C147.189 72.5105 146.753 72.3575 146.35 72.2404C145.946 72.1167 145.542 72.0548 145.139 72.0548C144.618 72.0548 144.185 72.1785 143.84 72.4259C143.495 72.6668 143.238 73.0314 143.068 73.5197C142.899 74.0079 142.814 74.6199 142.814 75.3556C142.814 76.0782 142.906 76.6772 143.088 77.1525C143.27 77.6277 143.534 77.9825 143.879 78.2169C144.224 78.4448 144.644 78.5587 145.139 78.5587C145.757 78.5587 146.307 78.4773 146.789 78.3146C147.271 78.1453 147.74 77.9109 148.195 77.6115V80.1603C147.74 80.4467 147.261 80.6518 146.76 80.7755C146.265 80.9057 145.637 80.9708 144.875 80.9708ZM155.236 69.6525C156.245 69.6525 157.115 69.8478 157.844 70.2384C158.573 70.6225 159.136 71.1824 159.533 71.9181C159.93 72.6538 160.129 73.5522 160.129 74.6134V76.0587H153.088C153.12 76.8986 153.371 77.5594 153.84 78.0411C154.315 78.5164 154.973 78.754 155.812 78.754C156.509 78.754 157.147 78.6824 157.727 78.5392C158.306 78.396 158.902 78.1811 159.514 77.8947V80.1993C158.973 80.4663 158.407 80.6616 157.814 80.7853C157.229 80.909 156.516 80.9708 155.676 80.9708C154.582 80.9708 153.612 80.769 152.766 80.3654C151.926 79.9617 151.265 79.3465 150.783 78.5197C150.308 77.6928 150.07 76.6512 150.07 75.3947C150.07 74.1186 150.285 73.0574 150.715 72.2111C151.151 71.3582 151.757 70.7202 152.531 70.297C153.306 69.8673 154.208 69.6525 155.236 69.6525ZM155.256 71.7716C154.676 71.7716 154.195 71.9572 153.811 72.3282C153.433 72.6993 153.215 73.282 153.156 74.0763H157.336C157.329 73.6336 157.248 73.2397 157.092 72.8947C156.942 72.5496 156.714 72.2762 156.408 72.0743C156.109 71.8725 155.725 71.7716 155.256 71.7716Z" fill="#444444"/>
</svg>
